# xmcd CD database file
#
# Track frame offsets:
#	150
#	13187
#	37750
#	92750
#	110405
#	127822
#	152467
#	172137
#	194762
#	213570
#
# Disc length: 3064 seconds
#
# Revision: 0
# Processed by: cddbd v1.5.1PL2 Copyright (c) Steve Scherf et al.
# Submitted via: CDex 1.70beta2
#
DISCID=810bf60a
DTITLE=オムニバス - CF BEST HIT　1987年
DYEAR=1987
DGENRE=Jazz
TTITLE0=ギフト-イーディー・ゴーメ
TTITLE1=テイク・ファイブ-デイブ・ブルーベック
TTITLE2=シング・シング・シング-ベニー・グッドマン
TTITLE3=スターダスト-ウィリー・ネルソン
TTITLE4=ハーバーライツ-ウイリー・ネルソン
TTITLE5=セパレイト・ウェイズ-ジャーニー
TTITLE6=エンジェル07-ヒューバート・カー
TTITLE7=トワイライト・ハイウェイ-ボズ・スキャッグス
TTITLE8=アイ・ニード・ユー-モーリス・ホワイト
TTITLE9=テイク・ミ・トゥー・ユア・リーダー-ＧＩオレンジ
EXTD=YEAR: 1987
EXTT0=
EXTT1=
EXTT2=
EXTT3=
EXTT4=
EXTT5=
EXTT6=
EXTT7=
EXTT8=
EXTT9=
PLAYORDER=
